<?xml version="1.0" encoding="utf-8"?>
<!-- Generator: Adobe Illustrator 26.0.2, SVG Export Plug-In . SVG Version: 6.00 Build 0)  -->
<svg version="1.1" id="Layer_1" xmlns="http://www.w3.org/2000/svg" xmlns:xlink="http://www.w3.org/1999/xlink" x="0px" y="0px"
	 viewBox="0 0 280 45.97" style="enable-background:new 0 0 280 45.97;" xml:space="preserve">
<style type="text/css">
	.st0{fill:none;stroke:#939598;stroke-miterlimit:10;}
	.st1{fill:none;stroke:#000000;stroke-miterlimit:10;}
	.st2{opacity:0;fill:none;stroke:#000000;stroke-width:1.000000e-06;stroke-miterlimit:10;}
	
		.st3{opacity:0;clip-path:url(#SVGID_00000089560545806222494290000016638507105264273313_);fill:none;stroke:#000000;stroke-width:1.000000e-06;stroke-miterlimit:10;}
	.st4{clip-path:url(#SVGID_00000089560545806222494290000016638507105264273313_);}
	
		.st5{opacity:0;clip-path:url(#SVGID_00000050635011683722582880000009769323611873159063_);fill:none;stroke:#000000;stroke-width:1.000000e-06;stroke-miterlimit:10;}
	.st6{clip-path:url(#SVGID_00000050635011683722582880000009769323611873159063_);}
	.st7{font-family:'GillSansNova-Book';}
	.st8{font-size:12px;}
</style>
<line class="st0" x1="140" y1="7" x2="140" y2="31.1"/>
<line class="st1" x1="0" y1="19.6" x2="40" y2="19.6"/>
<line class="st1" x1="40" y1="17.6" x2="80" y2="17.6"/>
<line class="st1" x1="80" y1="19.6" x2="120" y2="19.6"/>
<line class="st1" x1="120" y1="17.6" x2="160" y2="17.6"/>
<line class="st1" x1="160" y1="19.6" x2="200" y2="19.6"/>
<line class="st1" x1="200" y1="17.6" x2="240" y2="17.6"/>
<line class="st1" x1="240" y1="19.6" x2="280" y2="19.6"/>
<line class="st1" x1="40" y1="21.4" x2="80" y2="21.4"/>
<line class="st1" x1="120" y1="21.4" x2="160" y2="21.4"/>
<line class="st1" x1="200" y1="21.4" x2="240" y2="21.4"/>
<polygon class="st2" points="115.74,14 115.74,14 115.74,14 115.74,14 115.74,14 115.74,14 115.74,14 115.74,14 115.74,14 
	115.74,14 115.74,14 115.74,14 115.74,14 115.74,14 115.74,14 115.74,14 115.74,14 115.74,14 115.74,14 115.74,14 115.74,14 
	115.74,14 115.74,14 115.74,14 115.74,14 115.74,14 115.74,14 115.74,14 115.74,14 115.74,14 115.74,14 115.74,14 115.74,14 
	115.74,14 115.74,14 115.74,14 115.74,14 115.74,14 115.74,14 115.74,14 115.74,14 115.74,14 115.74,14 115.74,14 115.74,14 
	115.74,14 115.74,14 115.74,14 115.74,14 115.74,14 115.74,14 115.74,14 115.74,14 115.74,14 115.74,14 115.74,14 115.74,14 
	115.74,14 115.74,14 115.74,14 115.74,14 115.74,14 115.74,14 115.74,14 115.74,14 115.74,14 115.74,14 115.74,14 115.74,14 
	115.74,14 115.74,14 115.74,14 115.74,14 115.74,14 115.74,14 115.74,14 115.74,14 115.74,14 115.74,14 115.74,14 115.74,14 
	115.74,14 115.74,14 115.74,14 115.74,14 "/>
<g>
	<defs>
		<rect id="SVGID_1_" x="109.62" width="13" height="14"/>
	</defs>
	<clipPath id="SVGID_00000165928946537391874950000011448189919072659330_">
		<use xlink:href="#SVGID_1_"  style="overflow:visible;"/>
	</clipPath>
	
		<path style="opacity:0;clip-path:url(#SVGID_00000165928946537391874950000011448189919072659330_);fill:none;stroke:#000000;stroke-width:1.000000e-06;stroke-miterlimit:10;" d="
		M116.12,7L116.12,7z"/>
	<path style="clip-path:url(#SVGID_00000165928946537391874950000011448189919072659330_);" d="M114.66,8.92l3.52-5.9l0.57,5.9
		H114.66z M112.52,11.54c-0.71,1.2-1.41,1.45-2.2,1.5c-0.21,0.02-0.38,0.02-0.38,0.36c0,0.11,0.09,0.2,0.23,0.2
		c0.48,0,1.04-0.05,1.54-0.05c0.59,0,1.22,0.05,1.79,0.05c0.11,0,0.34,0,0.34-0.34c0-0.2-0.16-0.22-0.29-0.22
		c-0.41-0.04-0.84-0.18-0.84-0.63c0-0.22,0.11-0.41,0.25-0.66l1.36-2.29h4.49c0.03,0.38,0.29,2.81,0.29,2.99
		c0,0.54-0.93,0.59-1.29,0.59c-0.25,0-0.43,0-0.43,0.36c0,0.2,0.21,0.2,0.25,0.2c0.73,0,1.5-0.05,2.24-0.05
		c0.45,0,1.57,0.05,2.02,0.05c0.11,0,0.32,0,0.32-0.36c0-0.2-0.18-0.2-0.41-0.2c-1.11,0-1.11-0.13-1.16-0.64l-1.09-11.17
		c-0.04-0.36-0.04-0.43-0.34-0.43c-0.29,0-0.36,0.12-0.46,0.3L112.52,11.54z"/>
</g>
<polygon class="st2" points="159.73,14 159.73,14 159.73,14 159.73,14 159.73,14 159.73,14 159.73,14 159.73,14 159.73,14 
	159.73,14 159.73,14 159.73,14 159.73,14 159.73,14 159.73,14 159.73,14 159.73,14 159.73,14 159.73,14 159.73,14 159.73,14 
	159.73,14 159.73,14 159.73,14 159.73,14 159.73,14 159.73,14 159.73,14 159.73,14 159.73,14 159.73,14 159.73,14 159.73,14 
	159.73,14 159.73,14 159.73,14 159.73,14 159.73,14 159.73,14 159.73,14 159.73,14 159.73,14 159.73,14 159.73,14 159.73,14 
	159.73,14 159.73,14 159.73,14 159.73,14 159.73,14 159.73,14 159.73,14 159.73,14 159.73,14 159.73,14 159.73,14 159.73,14 
	159.73,14 159.73,14 159.73,14 159.73,14 159.73,14 159.73,14 159.73,14 159.73,14 159.73,14 159.73,14 159.73,14 159.73,14 
	159.73,14 159.73,14 159.73,14 159.73,14 159.73,14 159.73,14 159.73,14 159.73,14 159.73,14 159.73,14 159.73,14 159.73,14 
	159.73,14 159.73,14 159.73,14 159.73,14 "/>
<g>
	<defs>
		<rect id="SVGID_00000090985114663841956520000004954265877644907408_" x="153.51" y="1" width="14" height="13"/>
	</defs>
	<clipPath id="SVGID_00000121269759802252207310000015966307591106765730_">
		<use xlink:href="#SVGID_00000090985114663841956520000004954265877644907408_"  style="overflow:visible;"/>
	</clipPath>
	
		<path style="opacity:0;clip-path:url(#SVGID_00000121269759802252207310000015966307591106765730_);fill:none;stroke:#000000;stroke-width:1.000000e-06;stroke-miterlimit:10;" d="
		M160.51,7.5L160.51,7.5z"/>
	<path style="clip-path:url(#SVGID_00000121269759802252207310000015966307591106765730_);" d="M158.26,13.25
		c-0.25,0-0.29,0-0.39-0.02c-0.18-0.02-0.23-0.04-0.23-0.18c0-0.05,0-0.09,0.09-0.41l1.23-4.99h3.38c1.72,0,2.06,1.32,2.06,2.09
		c0,1.77-1.59,3.5-3.7,3.5H158.26 M159.07,7.26l1.11-4.43c0.16-0.63,0.2-0.68,0.97-0.68h2.31c1.57,0,1.95,1.05,1.95,1.84
		c0,1.57-1.54,3.27-3.72,3.27H159.07z M156.37,12.4c-0.18,0.7-0.21,0.84-1.63,0.84c-0.3,0-0.48,0-0.48,0.36c0,0.2,0.16,0.2,0.48,0.2
		h6.38c2.83,0,4.93-2.11,4.93-3.86c0-1.29-1.04-2.32-2.77-2.52c1.86-0.34,3.74-1.66,3.74-3.36c0-1.32-1.18-2.47-3.33-2.47h-6.01
		c-0.34,0-0.52,0-0.52,0.36c0,0.2,0.16,0.2,0.5,0.2c0.04,0,0.38,0,0.68,0.04c0.32,0.04,0.48,0.05,0.48,0.29
		c0,0.07-0.02,0.12-0.07,0.34L156.37,12.4z"/>
</g>
<text transform="matrix(1 0 0 1 99.9999 42.9619)" class="st7 st8">Inversion Center</text>
</svg>
