<?xml version="1.0" encoding="utf-8"?>
<!-- Generator: Adobe Illustrator 26.0.2, SVG Export Plug-In . SVG Version: 6.00 Build 0)  -->
<svg version="1.1" id="Layer_1" xmlns="http://www.w3.org/2000/svg" xmlns:xlink="http://www.w3.org/1999/xlink" x="0px" y="0px"
	 viewBox="0 0 446.19 185.69" style="enable-background:new 0 0 446.19 185.69;" xml:space="preserve">
<style type="text/css">
	.st0{fill:none;stroke:#A7A9AC;stroke-miterlimit:10;}
	.st1{fill:none;stroke:#000000;stroke-miterlimit:10;}
	.st2{opacity:0;fill:none;stroke:#000000;stroke-width:1.000000e-06;stroke-miterlimit:10;}
	
		.st3{opacity:0;clip-path:url(#SVGID_00000168101425921155686690000017429519268881789619_);fill:none;stroke:#000000;stroke-width:1.000000e-06;stroke-miterlimit:10;}
	.st4{clip-path:url(#SVGID_00000168101425921155686690000017429519268881789619_);}
	
		.st5{opacity:0;clip-path:url(#SVGID_00000129201687384559359270000009016594439144741567_);fill:none;stroke:#000000;stroke-width:1.000000e-06;stroke-miterlimit:10;}
	.st6{clip-path:url(#SVGID_00000129201687384559359270000009016594439144741567_);}
	
		.st7{opacity:0;clip-path:url(#SVGID_00000036959133889188509590000012615982087916915338_);fill:none;stroke:#000000;stroke-width:1.000000e-06;stroke-miterlimit:10;}
	.st8{clip-path:url(#SVGID_00000036959133889188509590000012615982087916915338_);}
	
		.st9{opacity:0;clip-path:url(#SVGID_00000116941832599229002050000008484806183692069523_);fill:none;stroke:#000000;stroke-width:1.000000e-06;stroke-miterlimit:10;}
	.st10{clip-path:url(#SVGID_00000116941832599229002050000008484806183692069523_);}
	
		.st11{opacity:0;clip-path:url(#SVGID_00000152257622769423601730000015326562335910792381_);fill:none;stroke:#000000;stroke-width:1.000000e-06;stroke-miterlimit:10;}
	.st12{clip-path:url(#SVGID_00000152257622769423601730000015326562335910792381_);}
	
		.st13{opacity:0;clip-path:url(#SVGID_00000162332143939797616820000013143417708744464032_);fill:none;stroke:#000000;stroke-width:1.000000e-06;stroke-miterlimit:10;}
	.st14{clip-path:url(#SVGID_00000162332143939797616820000013143417708744464032_);}
	
		.st15{opacity:0;clip-path:url(#SVGID_00000028310860975087254360000014720154644572397958_);fill:none;stroke:#000000;stroke-width:1.000000e-06;stroke-miterlimit:10;}
	.st16{clip-path:url(#SVGID_00000028310860975087254360000014720154644572397958_);}
	
		.st17{opacity:0;clip-path:url(#SVGID_00000039128902657366444990000013877198630093683592_);fill:none;stroke:#000000;stroke-width:1.000000e-06;stroke-miterlimit:10;}
	.st18{clip-path:url(#SVGID_00000039128902657366444990000013877198630093683592_);}
</style>
<rect x="185.22" y="20.4" class="st0" width="62.83" height="68.09"/>
<g>
	<line class="st1" x1="76.78" y1="44.82" x2="47.54" y2="67.77"/>
	<line class="st1" x1="138.75" y1="44.82" x2="109.5" y2="67.77"/>
	<line class="st1" x1="200.71" y1="44.82" x2="171.47" y2="67.77"/>
	<line class="st1" x1="262.68" y1="44.82" x2="233.43" y2="67.77"/>
	<line class="st1" x1="324.65" y1="44.82" x2="295.4" y2="67.77"/>
	<polyline class="st1" points="355.63,65.83 324.65,41.52 293.66,65.83 262.68,41.52 231.7,65.83 200.71,41.52 169.73,65.83 
		138.75,41.52 107.77,65.83 76.78,41.52 45.8,65.83 14.82,41.52 	"/>
</g>
<g>
	<line class="st1" x1="325.51" y1="136.25" x2="354.76" y2="159.2"/>
	<line class="st1" x1="263.55" y1="136.25" x2="292.79" y2="159.2"/>
	<line class="st1" x1="201.58" y1="136.25" x2="230.83" y2="159.2"/>
	<line class="st1" x1="139.62" y1="136.25" x2="168.86" y2="159.2"/>
	<line class="st1" x1="77.65" y1="136.25" x2="106.9" y2="159.2"/>
	<polyline class="st1" points="15.69,132.95 46.67,157.27 77.65,132.95 108.64,157.27 139.62,132.95 170.6,157.27 201.58,132.95 
		232.57,157.27 263.55,132.95 294.53,157.27 325.51,132.95 356.5,157.27 	"/>
	<line class="st1" x1="15.69" y1="136.25" x2="44.93" y2="159.2"/>
</g>
<polygon class="st2" points="43.73,32.15 43.73,32.15 43.73,32.15 43.73,32.15 43.73,32.15 43.73,32.15 43.73,32.15 43.73,32.15 
	43.73,32.15 43.73,32.15 43.73,32.15 43.73,32.15 43.73,32.15 43.73,32.15 43.73,32.15 43.73,32.15 43.73,32.15 43.73,32.15 
	43.73,32.15 43.73,32.15 43.73,32.15 43.73,32.15 43.73,32.15 43.73,32.15 43.73,32.15 43.73,32.15 43.73,32.15 43.73,32.15 
	43.73,32.15 43.73,32.15 43.73,32.15 43.73,32.15 43.73,32.15 43.73,32.15 43.73,32.15 43.73,32.15 43.73,32.15 43.73,32.15 
	43.73,32.15 43.73,32.15 43.73,32.15 43.73,32.15 43.73,32.15 43.73,32.15 43.73,32.15 43.73,32.15 43.73,32.15 43.73,32.15 
	43.73,32.15 43.73,32.15 43.73,32.15 43.73,32.15 43.73,32.15 43.73,32.15 43.73,32.15 43.73,32.15 43.73,32.15 43.73,32.15 
	43.73,32.15 43.73,32.15 43.73,32.15 43.73,32.15 43.73,32.15 43.73,32.15 43.73,32.15 43.73,32.15 43.73,32.15 43.73,32.15 
	43.73,32.15 43.73,32.15 43.73,32.15 43.73,32.15 43.73,32.15 43.73,32.15 43.73,32.15 43.73,32.15 43.73,32.15 43.73,32.15 
	43.73,32.15 43.73,32.15 43.73,32.15 43.73,32.15 43.73,32.15 43.73,32.15 43.73,32.15 "/>
<g>
	<defs>
		<rect id="SVGID_1_" x="23.94" y="24.89" width="13" height="15"/>
	</defs>
	<clipPath id="SVGID_00000148643255753732580500000010311236872007924639_">
		<use xlink:href="#SVGID_1_"  style="overflow:visible;"/>
	</clipPath>
	
		<path style="opacity:0;clip-path:url(#SVGID_00000148643255753732580500000010311236872007924639_);fill:none;stroke:#000000;stroke-width:1.000000e-06;stroke-miterlimit:10;" d="
		M30.44,32.39L30.44,32.39z"/>
	<path style="clip-path:url(#SVGID_00000148643255753732580500000010311236872007924639_);" d="M27.62,29.74h1.68
		c0.36,0,0.54,0,0.54-0.36c0-0.2-0.18-0.2-0.5-0.2h-1.57c0.64-2.54,0.73-2.9,0.73-3c0-0.3-0.21-0.48-0.52-0.48
		c-0.05,0-0.55,0.02-0.71,0.64l-0.7,2.84h-1.68c-0.36,0-0.54,0-0.54,0.34c0,0.22,0.14,0.22,0.5,0.22h1.57
		c-1.29,5.08-1.36,5.38-1.36,5.7c0,0.97,0.68,1.65,1.65,1.65c1.82,0,2.84-2.61,2.84-2.75c0-0.18-0.14-0.18-0.21-0.18
		c-0.16,0-0.18,0.05-0.27,0.25c-0.77,1.86-1.72,2.29-2.32,2.29c-0.38,0-0.55-0.23-0.55-0.82c0-0.43,0.04-0.55,0.11-0.86L27.62,29.74
		"/>
	<path style="clip-path:url(#SVGID_00000148643255753732580500000010311236872007924639_);" d="M34.64,31.62
		c0-0.34-0.02-0.35-0.38-0.35c-0.8,0.79-1.94,0.8-2.46,0.8v0.45c0.3,0,1.13,0,1.82-0.35v6.39c0,0.41,0,0.58-1.25,0.58h-0.48v0.45
		c0.23-0.01,1.77-0.05,2.23-0.05c0.39,0,1.97,0.04,2.24,0.05v-0.45h-0.48c-1.25,0-1.25-0.16-1.25-0.58V31.62"/>
</g>
<polygon class="st2" points="106.96,16.11 106.96,16.11 106.96,16.11 106.96,16.11 106.96,16.11 106.96,16.11 106.96,16.11 
	106.96,16.11 106.96,16.11 106.96,16.11 106.96,16.11 106.96,16.11 106.96,16.11 106.96,16.11 106.96,16.11 106.96,16.11 
	106.96,16.11 106.96,16.11 106.96,16.11 106.96,16.11 106.96,16.11 106.96,16.11 106.96,16.11 106.96,16.11 106.96,16.11 
	106.96,16.11 106.96,16.11 106.96,16.11 106.96,16.11 106.96,16.11 106.96,16.11 106.96,16.11 106.96,16.11 106.96,16.11 
	106.96,16.11 106.96,16.11 106.96,16.11 106.96,16.11 106.96,16.11 106.96,16.11 106.96,16.11 106.96,16.11 106.96,16.11 
	106.96,16.11 106.96,16.11 106.96,16.11 106.96,16.11 106.96,16.11 106.96,16.11 106.96,16.11 106.96,16.11 106.96,16.11 
	106.96,16.11 106.96,16.11 106.96,16.11 106.96,16.11 106.96,16.11 106.96,16.11 106.96,16.11 106.96,16.11 106.96,16.11 
	106.96,16.11 106.96,16.11 106.96,16.11 106.96,16.11 106.96,16.11 106.96,16.11 106.96,16.11 106.96,16.11 106.96,16.11 
	106.96,16.11 106.96,16.11 106.96,16.11 106.96,16.11 106.96,16.11 106.96,16.11 106.96,16.11 106.96,16.11 106.96,16.11 
	106.96,16.11 106.96,16.11 106.96,16.11 106.96,16.11 106.96,16.11 106.96,16.11 "/>
<g>
	<defs>
		<rect id="SVGID_00000066505918570404365090000004822853969611129735_" x="52.68" y="24.89" width="13" height="15"/>
	</defs>
	<clipPath id="SVGID_00000105424610060496909920000002258854304101227949_">
		<use xlink:href="#SVGID_00000066505918570404365090000004822853969611129735_"  style="overflow:visible;"/>
	</clipPath>
	
		<path style="opacity:0;clip-path:url(#SVGID_00000105424610060496909920000002258854304101227949_);fill:none;stroke:#000000;stroke-width:1.000000e-06;stroke-miterlimit:10;" d="
		M59.18,32.39L59.18,32.39z"/>
	<path style="clip-path:url(#SVGID_00000105424610060496909920000002258854304101227949_);" d="M56.36,29.74h1.68
		c0.36,0,0.54,0,0.54-0.36c0-0.2-0.18-0.2-0.5-0.2H56.5c0.64-2.54,0.73-2.9,0.73-3c0-0.3-0.21-0.48-0.52-0.48
		c-0.05,0-0.55,0.02-0.71,0.64l-0.7,2.84h-1.68c-0.36,0-0.54,0-0.54,0.34c0,0.22,0.14,0.22,0.5,0.22h1.57
		c-1.29,5.08-1.36,5.38-1.36,5.7c0,0.97,0.68,1.65,1.65,1.65c1.82,0,2.84-2.61,2.84-2.75c0-0.18-0.14-0.18-0.21-0.18
		c-0.16,0-0.18,0.05-0.27,0.25c-0.77,1.86-1.72,2.29-2.32,2.29c-0.38,0-0.55-0.23-0.55-0.82c0-0.43,0.04-0.55,0.11-0.86L56.36,29.74
		"/>
	<path style="clip-path:url(#SVGID_00000105424610060496909920000002258854304101227949_);" d="M65.5,37.31h-0.43
		c-0.04,0.28-0.16,1.02-0.33,1.14c-0.1,0.07-1.07,0.07-1.24,0.07h-2.31c1.32-1.17,1.75-1.52,2.51-2.1c0.93-0.74,1.79-1.52,1.79-2.71
		c0-1.52-1.33-2.44-2.93-2.44c-1.55,0-2.61,1.09-2.61,2.24c0,0.64,0.54,0.7,0.66,0.7c0.3,0,0.66-0.21,0.66-0.66
		c0-0.22-0.09-0.66-0.74-0.66c0.39-0.89,1.24-1.17,1.83-1.17c1.25,0,1.9,0.98,1.9,1.99c0,1.09-0.78,1.96-1.18,2.41l-3.02,2.98
		c-0.12,0.11-0.12,0.14-0.12,0.49h5.16L65.5,37.31"/>
</g>
<g>
	<defs>
		<rect id="SVGID_00000058557501372182364620000016943372679624493725_" x="23.94" y="120.36" width="13" height="15"/>
	</defs>
	<clipPath id="SVGID_00000170276147384363583200000013196128527623950979_">
		<use xlink:href="#SVGID_00000058557501372182364620000016943372679624493725_"  style="overflow:visible;"/>
	</clipPath>
	
		<path style="opacity:0;clip-path:url(#SVGID_00000170276147384363583200000013196128527623950979_);fill:none;stroke:#000000;stroke-width:1.000000e-06;stroke-miterlimit:10;" d="
		M30.44,127.86L30.44,127.86z"/>
	<path style="clip-path:url(#SVGID_00000170276147384363583200000013196128527623950979_);" d="M27.62,125.21h1.68
		c0.36,0,0.54,0,0.54-0.36c0-0.2-0.18-0.2-0.5-0.2h-1.57c0.64-2.54,0.73-2.9,0.73-3c0-0.3-0.21-0.48-0.52-0.48
		c-0.05,0-0.55,0.02-0.71,0.64l-0.7,2.84h-1.68c-0.36,0-0.54,0-0.54,0.34c0,0.22,0.14,0.22,0.5,0.22h1.57
		c-1.29,5.08-1.36,5.38-1.36,5.7c0,0.97,0.68,1.65,1.65,1.65c1.82,0,2.84-2.61,2.84-2.75c0-0.18-0.14-0.18-0.21-0.18
		c-0.16,0-0.18,0.05-0.27,0.25c-0.77,1.86-1.72,2.29-2.32,2.29c-0.38,0-0.55-0.23-0.55-0.82c0-0.43,0.04-0.55,0.11-0.86
		L27.62,125.21"/>
	<path style="clip-path:url(#SVGID_00000170276147384363583200000013196128527623950979_);" d="M34.64,127.09
		c0-0.34-0.02-0.35-0.38-0.35c-0.8,0.79-1.94,0.8-2.46,0.8v0.45c0.3,0,1.13,0,1.82-0.35v6.39c0,0.41,0,0.58-1.25,0.58h-0.48v0.45
		c0.23-0.01,1.77-0.05,2.23-0.05c0.39,0,1.97,0.04,2.24,0.05v-0.45h-0.48c-1.25,0-1.25-0.16-1.25-0.58V127.09"/>
</g>
<g>
	<defs>
		<rect id="SVGID_00000067229725873301781690000003129091395152430007_" x="52.68" y="120.36" width="13" height="15"/>
	</defs>
	<clipPath id="SVGID_00000000183097611227547590000010092770228269123226_">
		<use xlink:href="#SVGID_00000067229725873301781690000003129091395152430007_"  style="overflow:visible;"/>
	</clipPath>
	
		<path style="opacity:0;clip-path:url(#SVGID_00000000183097611227547590000010092770228269123226_);fill:none;stroke:#000000;stroke-width:1.000000e-06;stroke-miterlimit:10;" d="
		M59.18,127.86L59.18,127.86z"/>
	<path style="clip-path:url(#SVGID_00000000183097611227547590000010092770228269123226_);" d="M56.36,125.21h1.68
		c0.36,0,0.54,0,0.54-0.36c0-0.2-0.18-0.2-0.5-0.2H56.5c0.64-2.54,0.73-2.9,0.73-3c0-0.3-0.21-0.48-0.52-0.48
		c-0.05,0-0.55,0.02-0.71,0.64l-0.7,2.84h-1.68c-0.36,0-0.54,0-0.54,0.34c0,0.22,0.14,0.22,0.5,0.22h1.57
		c-1.29,5.08-1.36,5.38-1.36,5.7c0,0.97,0.68,1.65,1.65,1.65c1.82,0,2.84-2.61,2.84-2.75c0-0.18-0.14-0.18-0.21-0.18
		c-0.16,0-0.18,0.05-0.27,0.25c-0.77,1.86-1.72,2.29-2.32,2.29c-0.38,0-0.55-0.23-0.55-0.82c0-0.43,0.04-0.55,0.11-0.86
		L56.36,125.21"/>
	<path style="clip-path:url(#SVGID_00000000183097611227547590000010092770228269123226_);" d="M65.5,132.78h-0.43
		c-0.04,0.28-0.16,1.02-0.33,1.14c-0.1,0.07-1.07,0.07-1.24,0.07h-2.31c1.32-1.17,1.75-1.52,2.51-2.1c0.93-0.74,1.79-1.52,1.79-2.71
		c0-1.52-1.33-2.44-2.93-2.44c-1.55,0-2.61,1.09-2.61,2.24c0,0.64,0.54,0.7,0.66,0.7c0.3,0,0.66-0.21,0.66-0.66
		c0-0.22-0.09-0.66-0.74-0.66c0.39-0.89,1.24-1.17,1.83-1.17c1.25,0,1.9,0.98,1.9,1.99c0,1.09-0.78,1.96-1.18,2.41l-3.02,2.98
		c-0.12,0.11-0.12,0.14-0.12,0.49h5.16L65.5,132.78"/>
</g>
<polygon class="st2" points="404.71,54.64 404.71,54.64 404.71,54.64 404.71,54.64 404.71,54.64 404.71,54.64 404.71,54.64 
	404.71,54.64 404.71,54.64 404.71,54.64 404.71,54.64 404.71,54.64 404.71,54.64 404.71,54.64 404.71,54.64 404.71,54.64 
	404.71,54.64 404.71,54.64 404.71,54.64 404.71,54.64 404.71,54.64 404.71,54.64 404.71,54.64 404.71,54.64 404.71,54.64 
	404.71,54.64 404.71,54.64 404.71,54.64 404.71,54.64 404.71,54.64 404.71,54.64 404.71,54.64 404.71,54.64 404.71,54.64 
	404.71,54.64 404.71,54.64 404.71,54.64 404.71,54.64 404.71,54.64 404.71,54.64 404.71,54.64 404.71,54.64 404.71,54.64 
	404.71,54.64 404.71,54.64 404.71,54.64 404.71,54.64 404.71,54.64 404.71,54.64 404.71,54.64 404.71,54.64 404.71,54.64 
	404.71,54.64 404.71,54.64 404.71,54.64 404.71,54.64 404.71,54.64 404.71,54.64 404.71,54.64 404.71,54.64 404.71,54.64 
	404.71,54.64 404.71,54.64 404.71,54.64 404.71,54.64 404.71,54.64 404.71,54.64 404.71,54.64 404.71,54.64 404.71,54.64 
	404.71,54.64 404.71,54.64 404.71,54.64 404.71,54.64 404.71,54.64 404.71,54.64 404.71,54.64 404.71,54.64 404.71,54.64 
	404.71,54.64 404.71,54.64 404.71,54.64 404.71,54.64 404.71,54.64 404.71,54.64 404.71,54.64 "/>
<g>
	<defs>
		<rect id="SVGID_00000065780219165375914780000010926463339339925937_" x="378.9" y="47.14" width="52" height="15"/>
	</defs>
	<clipPath id="SVGID_00000181803954822511298420000001945542843135771528_">
		<use xlink:href="#SVGID_00000065780219165375914780000010926463339339925937_"  style="overflow:visible;"/>
	</clipPath>
	
		<path style="opacity:0;clip-path:url(#SVGID_00000181803954822511298420000001945542843135771528_);fill:none;stroke:#000000;stroke-width:1.000000e-06;stroke-miterlimit:10;" d="
		M404.9,54.64L404.9,54.64z"/>
	<path style="clip-path:url(#SVGID_00000181803954822511298420000001945542843135771528_);" d="M382.39,51.99h1.68
		c0.36,0,0.54,0,0.54-0.36c0-0.2-0.18-0.2-0.5-0.2h-1.57c0.64-2.54,0.73-2.9,0.73-3c0-0.3-0.21-0.48-0.52-0.48
		c-0.05,0-0.55,0.02-0.71,0.64l-0.7,2.84h-1.68c-0.36,0-0.54,0-0.54,0.34c0,0.22,0.14,0.22,0.5,0.22h1.57
		c-1.29,5.08-1.36,5.38-1.36,5.7c0,0.97,0.68,1.65,1.65,1.65c1.82,0,2.84-2.61,2.84-2.75c0-0.18-0.14-0.18-0.21-0.18
		c-0.16,0-0.18,0.05-0.27,0.25c-0.77,1.86-1.72,2.29-2.32,2.29c-0.38,0-0.55-0.23-0.55-0.82c0-0.43,0.04-0.55,0.11-0.86
		L382.39,51.99"/>
	<path style="clip-path:url(#SVGID_00000181803954822511298420000001945542843135771528_);" d="M389.4,53.87
		c0-0.34-0.02-0.35-0.38-0.35c-0.8,0.79-1.94,0.8-2.46,0.8v0.45c0.3,0,1.13,0,1.82-0.35v6.39c0,0.41,0,0.58-1.25,0.58h-0.48v0.45
		c0.23-0.01,1.77-0.05,2.23-0.05c0.39,0,1.97,0.04,2.24,0.05v-0.45h-0.48c-1.25,0-1.25-0.16-1.25-0.58V53.87"/>
	<path style="clip-path:url(#SVGID_00000181803954822511298420000001945542843135771528_);" d="M410.27,50.24
		c0.22-0.11,0.34-0.2,0.34-0.39c0-0.2-0.16-0.36-0.36-0.36c-0.05,0-0.09,0-0.32,0.13l-9.91,4.67c-0.2,0.09-0.34,0.18-0.34,0.39
		c0,0.21,0.14,0.3,0.34,0.39l9.91,4.67c0.23,0.12,0.27,0.12,0.32,0.12c0.2,0,0.36-0.16,0.36-0.36c0-0.2-0.12-0.29-0.34-0.39
		l-9.39-4.43L410.27,50.24"/>
	<path style="clip-path:url(#SVGID_00000181803954822511298420000001945542843135771528_);" d="M420.79,51.99h1.68
		c0.36,0,0.54,0,0.54-0.36c0-0.2-0.18-0.2-0.5-0.2h-1.57c0.64-2.54,0.73-2.9,0.73-3c0-0.3-0.21-0.48-0.52-0.48
		c-0.05,0-0.55,0.02-0.71,0.64l-0.7,2.84h-1.68c-0.36,0-0.54,0-0.54,0.34c0,0.22,0.14,0.22,0.5,0.22h1.57
		c-1.29,5.08-1.36,5.38-1.36,5.7c0,0.97,0.68,1.65,1.65,1.65c1.82,0,2.84-2.61,2.84-2.75c0-0.18-0.14-0.18-0.21-0.18
		c-0.16,0-0.18,0.05-0.27,0.25c-0.77,1.86-1.72,2.29-2.32,2.29c-0.38,0-0.55-0.23-0.55-0.82c0-0.43,0.04-0.55,0.11-0.86
		L420.79,51.99"/>
	<path style="clip-path:url(#SVGID_00000181803954822511298420000001945542843135771528_);" d="M429.93,59.56h-0.42
		c-0.04,0.28-0.16,1.02-0.33,1.14c-0.1,0.07-1.07,0.07-1.24,0.07h-2.31c1.32-1.17,1.75-1.52,2.51-2.1c0.93-0.74,1.79-1.52,1.79-2.71
		c0-1.52-1.33-2.44-2.93-2.44c-1.55,0-2.61,1.09-2.61,2.24c0,0.64,0.54,0.7,0.66,0.7c0.3,0,0.66-0.21,0.66-0.66
		c0-0.22-0.09-0.66-0.74-0.66c0.39-0.89,1.24-1.17,1.83-1.17c1.25,0,1.9,0.98,1.9,1.99c0,1.09-0.78,1.96-1.18,2.41l-3.02,2.98
		c-0.12,0.11-0.12,0.14-0.12,0.49h5.16L429.93,59.56"/>
</g>
<polygon class="st2" points="420.04,139.74 420.04,139.74 420.04,139.74 420.04,139.74 420.04,139.74 420.04,139.74 420.04,139.74 
	420.04,139.74 420.04,139.74 420.04,139.74 420.04,139.74 420.04,139.74 420.04,139.74 420.04,139.74 420.04,139.74 420.04,139.74 
	420.04,139.74 420.04,139.74 420.04,139.74 420.04,139.74 420.04,139.74 420.04,139.74 420.04,139.74 420.04,139.74 420.04,139.74 
	420.04,139.74 420.04,139.74 420.04,139.74 420.04,139.74 420.04,139.74 420.04,139.74 420.04,139.74 420.04,139.74 420.04,139.74 
	420.04,139.74 420.04,139.74 420.04,139.74 420.04,139.74 420.04,139.74 420.04,139.74 420.04,139.74 420.04,139.74 420.04,139.74 
	420.04,139.74 420.04,139.74 420.04,139.74 420.04,139.74 420.04,139.74 420.04,139.74 420.04,139.74 420.04,139.74 420.04,139.74 
	420.04,139.74 420.04,139.74 420.04,139.74 420.04,139.74 420.04,139.74 420.04,139.74 420.04,139.74 420.04,139.74 420.04,139.74 
	420.04,139.74 420.04,139.74 420.04,139.74 420.04,139.74 420.04,139.74 420.04,139.74 420.04,139.74 420.04,139.74 420.04,139.74 
	420.04,139.74 420.04,139.74 420.04,139.74 420.04,139.74 420.04,139.74 420.04,139.74 420.04,139.74 420.04,139.74 420.04,139.74 
	420.04,139.74 420.04,139.74 420.04,139.74 420.04,139.74 420.04,139.74 420.04,139.74 420.04,139.74 "/>
<g>
	<defs>
		<rect id="SVGID_00000006679958257035570930000004816043076104573594_" x="378.71" y="138.58" width="52" height="15"/>
	</defs>
	<clipPath id="SVGID_00000093874537583656904590000009288970778742624190_">
		<use xlink:href="#SVGID_00000006679958257035570930000004816043076104573594_"  style="overflow:visible;"/>
	</clipPath>
	
		<path style="opacity:0;clip-path:url(#SVGID_00000093874537583656904590000009288970778742624190_);fill:none;stroke:#000000;stroke-width:1.000000e-06;stroke-miterlimit:10;" d="
		M404.71,146.08L404.71,146.08z"/>
	<path style="clip-path:url(#SVGID_00000093874537583656904590000009288970778742624190_);" d="M382.19,143.43h1.68
		c0.36,0,0.54,0,0.54-0.36c0-0.2-0.18-0.2-0.5-0.2h-1.57c0.64-2.54,0.73-2.9,0.73-3c0-0.3-0.21-0.48-0.52-0.48
		c-0.05,0-0.55,0.02-0.71,0.64l-0.7,2.84h-1.68c-0.36,0-0.54,0-0.54,0.34c0,0.22,0.14,0.22,0.5,0.22h1.57
		c-1.29,5.08-1.36,5.38-1.36,5.7c0,0.97,0.68,1.65,1.65,1.65c1.82,0,2.84-2.61,2.84-2.75c0-0.18-0.14-0.18-0.21-0.18
		c-0.16,0-0.18,0.05-0.27,0.25c-0.77,1.86-1.72,2.29-2.32,2.29c-0.38,0-0.55-0.23-0.55-0.82c0-0.43,0.04-0.55,0.11-0.86
		L382.19,143.43"/>
	<path style="clip-path:url(#SVGID_00000093874537583656904590000009288970778742624190_);" d="M389.2,145.31
		c0-0.34-0.02-0.35-0.38-0.35c-0.8,0.79-1.94,0.8-2.46,0.8v0.45c0.3,0,1.13,0,1.82-0.35v6.39c0,0.41,0,0.58-1.25,0.58h-0.48v0.45
		c0.23-0.01,1.77-0.05,2.23-0.05c0.39,0,1.97,0.04,2.24,0.05v-0.45h-0.48c-1.25,0-1.25-0.16-1.25-0.58V145.31"/>
	<path style="clip-path:url(#SVGID_00000093874537583656904590000009288970778742624190_);" d="M410.08,146.5
		c0.2-0.09,0.34-0.18,0.34-0.39s-0.14-0.3-0.34-0.39l-9.9-4.67c-0.23-0.13-0.27-0.13-0.32-0.13c-0.2,0-0.36,0.16-0.36,0.36
		c0,0.16,0.09,0.27,0.34,0.39l9.39,4.43l-9.39,4.43c-0.25,0.12-0.34,0.23-0.34,0.39c0,0.2,0.16,0.36,0.36,0.36
		c0.05,0,0.09,0,0.32-0.12L410.08,146.5"/>
	<path style="clip-path:url(#SVGID_00000093874537583656904590000009288970778742624190_);" d="M420.59,143.43h1.68
		c0.36,0,0.54,0,0.54-0.36c0-0.2-0.18-0.2-0.5-0.2h-1.57c0.64-2.54,0.73-2.9,0.73-3c0-0.3-0.21-0.48-0.52-0.48
		c-0.05,0-0.55,0.02-0.71,0.64l-0.7,2.84h-1.68c-0.36,0-0.54,0-0.54,0.34c0,0.22,0.14,0.22,0.5,0.22h1.57
		c-1.29,5.08-1.36,5.38-1.36,5.7c0,0.97,0.68,1.65,1.65,1.65c1.82,0,2.84-2.61,2.84-2.75c0-0.18-0.14-0.18-0.21-0.18
		c-0.16,0-0.18,0.05-0.27,0.25c-0.77,1.86-1.72,2.29-2.32,2.29c-0.38,0-0.55-0.23-0.55-0.82c0-0.43,0.04-0.55,0.11-0.86
		L420.59,143.43"/>
	<path style="clip-path:url(#SVGID_00000093874537583656904590000009288970778742624190_);" d="M429.73,151h-0.42
		c-0.04,0.28-0.16,1.02-0.33,1.14c-0.1,0.07-1.07,0.07-1.24,0.07h-2.31c1.32-1.17,1.75-1.52,2.51-2.1c0.93-0.74,1.79-1.52,1.79-2.71
		c0-1.52-1.33-2.44-2.93-2.44c-1.55,0-2.61,1.09-2.61,2.24c0,0.64,0.54,0.7,0.66,0.7c0.3,0,0.66-0.21,0.66-0.66
		c0-0.23-0.09-0.66-0.74-0.66c0.39-0.89,1.24-1.17,1.83-1.17c1.25,0,1.9,0.98,1.9,1.99c0,1.09-0.78,1.96-1.18,2.41l-3.02,2.98
		c-0.12,0.11-0.12,0.14-0.12,0.49h5.16L429.73,151"/>
</g>
<polygon class="st2" points="167.4,82.73 167.4,82.73 167.4,82.73 167.4,82.73 167.4,82.73 167.4,82.73 167.4,82.73 167.4,82.73 
	167.4,82.73 167.4,82.73 167.4,82.73 167.4,82.73 167.4,82.73 167.4,82.73 167.4,82.73 167.4,82.73 167.4,82.73 167.4,82.73 
	167.4,82.73 167.4,82.73 167.4,82.73 167.4,82.73 167.4,82.73 167.4,82.73 167.4,82.73 167.4,82.73 167.4,82.73 167.4,82.73 
	167.4,82.73 167.4,82.73 167.4,82.73 167.4,82.73 167.4,82.73 167.4,82.73 167.4,82.73 167.4,82.73 167.4,82.73 167.4,82.73 
	167.4,82.73 167.4,82.73 167.4,82.73 167.4,82.73 167.4,82.73 167.4,82.73 167.4,82.73 167.4,82.73 167.4,82.73 167.4,82.73 
	167.4,82.73 167.4,82.73 167.4,82.73 167.4,82.73 167.4,82.73 167.4,82.73 167.4,82.73 167.4,82.73 167.4,82.73 167.4,82.73 
	167.4,82.73 167.4,82.73 167.4,82.73 167.4,82.73 167.4,82.73 167.4,82.73 167.4,82.73 167.4,82.73 167.4,82.73 167.4,82.73 
	167.4,82.73 167.4,82.73 167.4,82.73 167.4,82.73 167.4,82.73 167.4,82.73 167.4,82.73 167.4,82.73 167.4,82.73 167.4,82.73 
	167.4,82.73 167.4,82.73 167.4,82.73 167.4,82.73 167.4,82.73 167.4,82.73 167.4,82.73 "/>
<g>
	<defs>
		<rect id="SVGID_00000082341779759844332650000016508083075492773779_" x="194.21" y="22.64" width="13" height="14"/>
	</defs>
	<clipPath id="SVGID_00000016764802994707477210000015712417905077665714_">
		<use xlink:href="#SVGID_00000082341779759844332650000016508083075492773779_"  style="overflow:visible;"/>
	</clipPath>
	
		<path style="opacity:0;clip-path:url(#SVGID_00000016764802994707477210000015712417905077665714_);fill:none;stroke:#000000;stroke-width:1.000000e-06;stroke-miterlimit:10;" d="
		M200.71,29.64L200.71,29.64z"/>
	<path style="clip-path:url(#SVGID_00000016764802994707477210000015712417905077665714_);" d="M199.26,31.56l3.52-5.9l0.57,5.9
		H199.26z M197.11,34.18c-0.71,1.2-1.41,1.45-2.2,1.5c-0.21,0.02-0.38,0.02-0.38,0.36c0,0.11,0.09,0.2,0.23,0.2
		c0.48,0,1.04-0.05,1.54-0.05c0.59,0,1.22,0.05,1.79,0.05c0.11,0,0.34,0,0.34-0.34c0-0.2-0.16-0.22-0.29-0.22
		c-0.41-0.04-0.84-0.18-0.84-0.62c0-0.22,0.11-0.41,0.25-0.66l1.36-2.29h4.49c0.03,0.38,0.29,2.81,0.29,2.99
		c0,0.54-0.93,0.59-1.29,0.59c-0.25,0-0.43,0-0.43,0.36c0,0.2,0.21,0.2,0.25,0.2c0.73,0,1.5-0.05,2.24-0.05
		c0.45,0,1.57,0.05,2.02,0.05c0.11,0,0.32,0,0.32-0.36c0-0.2-0.18-0.2-0.41-0.2c-1.11,0-1.11-0.12-1.16-0.64l-1.09-11.17
		c-0.04-0.36-0.04-0.43-0.34-0.43c-0.29,0-0.36,0.12-0.46,0.3L197.11,34.18z"/>
</g>
<polygon class="st2" points="250.06,11.75 250.06,11.75 250.06,11.75 250.06,11.75 250.06,11.75 250.06,11.75 250.06,11.75 
	250.06,11.75 250.06,11.75 250.06,11.75 250.06,11.75 250.06,11.75 250.06,11.75 250.06,11.75 250.06,11.75 250.06,11.75 
	250.06,11.75 250.06,11.75 250.06,11.75 250.06,11.75 250.06,11.75 250.06,11.75 250.06,11.75 250.06,11.75 250.06,11.75 
	250.06,11.75 250.06,11.75 250.06,11.75 250.06,11.75 250.06,11.75 250.06,11.75 250.06,11.75 250.06,11.75 250.06,11.75 
	250.06,11.75 250.06,11.75 250.06,11.75 250.06,11.75 250.06,11.75 250.06,11.75 250.06,11.75 250.06,11.75 250.06,11.75 
	250.06,11.75 250.06,11.75 250.06,11.75 250.06,11.75 250.06,11.75 250.06,11.75 250.06,11.75 250.06,11.75 250.06,11.75 
	250.06,11.75 250.06,11.75 250.06,11.75 250.06,11.75 250.06,11.75 250.06,11.75 250.06,11.75 250.06,11.75 250.06,11.75 
	250.06,11.75 250.06,11.75 250.06,11.75 250.06,11.75 250.06,11.75 250.06,11.75 250.06,11.75 250.06,11.75 250.06,11.75 
	250.06,11.75 250.06,11.75 250.06,11.75 250.06,11.75 250.06,11.75 250.06,11.75 250.06,11.75 250.06,11.75 250.06,11.75 
	250.06,11.75 250.06,11.75 250.06,11.75 250.06,11.75 250.06,11.75 250.06,11.75 "/>
<g>
	<defs>
		<rect id="SVGID_00000025408061890604329490000012844106499518067112_" x="223.83" y="72.64" width="14" height="13"/>
	</defs>
	<clipPath id="SVGID_00000137133475291752908900000013976228987568210071_">
		<use xlink:href="#SVGID_00000025408061890604329490000012844106499518067112_"  style="overflow:visible;"/>
	</clipPath>
	
		<path style="opacity:0;clip-path:url(#SVGID_00000137133475291752908900000013976228987568210071_);fill:none;stroke:#000000;stroke-width:1.000000e-06;stroke-miterlimit:10;" d="
		M230.83,79.14L230.83,79.14z"/>
	<path style="clip-path:url(#SVGID_00000137133475291752908900000013976228987568210071_);" d="M228.59,84.89
		c-0.25,0-0.29,0-0.39-0.02c-0.18-0.02-0.23-0.04-0.23-0.18c0-0.05,0-0.09,0.09-0.41l1.23-4.99h3.38c1.72,0,2.06,1.32,2.06,2.09
		c0,1.77-1.59,3.5-3.7,3.5H228.59 M229.39,78.9l1.11-4.43c0.16-0.63,0.2-0.68,0.97-0.68h2.31c1.57,0,1.95,1.05,1.95,1.84
		c0,1.57-1.54,3.27-3.72,3.27H229.39z M226.69,84.05c-0.18,0.7-0.21,0.84-1.63,0.84c-0.3,0-0.48,0-0.48,0.36
		c0,0.2,0.16,0.2,0.48,0.2h6.38c2.83,0,4.93-2.11,4.93-3.86c0-1.29-1.04-2.32-2.77-2.52c1.86-0.34,3.74-1.66,3.74-3.36
		c0-1.32-1.18-2.47-3.32-2.47h-6.01c-0.34,0-0.52,0-0.52,0.36c0,0.2,0.16,0.2,0.5,0.2c0.04,0,0.38,0,0.68,0.04
		c0.32,0.04,0.48,0.05,0.48,0.29c0,0.07-0.02,0.12-0.07,0.34L226.69,84.05z"/>
</g>
</svg>
