<?xml version="1.0" encoding="utf-8"?>
<!-- Generator: Adobe Illustrator 26.0.2, SVG Export Plug-In . SVG Version: 6.00 Build 0)  -->
<svg version="1.1" id="Layer_1" xmlns="http://www.w3.org/2000/svg" xmlns:xlink="http://www.w3.org/1999/xlink" x="0px" y="0px"
	 viewBox="0 0 279.56 151.57" style="enable-background:new 0 0 279.56 151.57;" xml:space="preserve">
<style type="text/css">
	.st0{fill:none;stroke:#939598;stroke-miterlimit:10;}
	.st1{fill:none;stroke:#000000;stroke-miterlimit:10;}
	.st2{fill:none;stroke:#ED1C24;stroke-miterlimit:10;}
	.st3{opacity:0;fill:none;stroke:#000000;stroke-width:1.000000e-06;stroke-miterlimit:10;}
	
		.st4{opacity:0;clip-path:url(#SVGID_00000080891033605734281140000016048458919218327204_);fill:none;stroke:#000000;stroke-width:1.000000e-06;stroke-miterlimit:10;}
	.st5{clip-path:url(#SVGID_00000080891033605734281140000016048458919218327204_);}
	.st6{clip-path:url(#SVGID_00000132089698212990339570000001616669169529735337_);}
	
		.st7{opacity:0;clip-path:url(#SVGID_00000152949857851550632910000001623523997561166210_);fill:none;stroke:#000000;stroke-width:1.000000e-06;stroke-miterlimit:10;}
	.st8{clip-path:url(#SVGID_00000152949857851550632910000001623523997561166210_);fill:#E51E26;}
	
		.st9{opacity:0;clip-path:url(#SVGID_00000052091578399109293920000013655551151678778788_);fill:none;stroke:#000000;stroke-width:1.000000e-06;stroke-miterlimit:10;}
	.st10{clip-path:url(#SVGID_00000052091578399109293920000013655551151678778788_);fill:#828386;}
	
		.st11{opacity:0;clip-path:url(#SVGID_00000066500900897781798260000002349077060582503300_);fill:none;stroke:#000000;stroke-width:1.000000e-06;stroke-miterlimit:10;}
	.st12{clip-path:url(#SVGID_00000066500900897781798260000002349077060582503300_);fill:#828386;}
	
		.st13{opacity:0;clip-path:url(#SVGID_00000173127365633897788440000016037561702234590599_);fill:none;stroke:#000000;stroke-width:1.000000e-06;stroke-miterlimit:10;}
	.st14{clip-path:url(#SVGID_00000173127365633897788440000016037561702234590599_);fill:#E51E26;}
</style>
<path class="st0" d="M179.48,78.17c0-6.39-0.56-12.65-1.63-18.74"/>
<g>
	<g>
		<line class="st1" x1="72" y1="151.57" x2="72" y2="10.8"/>
		<g>
			<path d="M72,4.77c1.05,2.84,2.85,6.36,4.76,8.55L72,11.59l-4.75,1.72C69.15,11.13,70.95,7.61,72,4.77z"/>
		</g>
	</g>
</g>
<g>
	<g>
		<line class="st1" x1="0" y1="78.17" x2="262.76" y2="78.17"/>
		<g>
			<path d="M268.8,78.17c-2.84,1.05-6.36,2.85-8.55,4.76l1.72-4.76l-1.72-4.75C262.44,75.32,265.96,77.11,268.8,78.17z"/>
		</g>
	</g>
</g>
<circle class="st2" cx="91.2" cy="78.17" r="39.6"/>
<circle class="st0" cx="189.52" cy="78.17" r="39.6"/>
<polygon class="st3" points="274.99,90.33 274.99,90.33 274.99,90.33 274.99,90.33 274.99,90.33 274.99,90.33 274.99,90.33 
	274.99,90.33 274.99,90.33 274.99,90.33 274.99,90.33 274.99,90.33 274.99,90.33 274.99,90.33 274.99,90.33 274.99,90.33 
	274.99,90.33 274.99,90.33 274.99,90.33 274.99,90.33 274.99,90.33 274.99,90.33 274.99,90.33 274.99,90.33 274.99,90.33 
	274.99,90.33 274.99,90.33 274.99,90.33 274.99,90.33 274.99,90.33 274.99,90.33 274.99,90.33 274.99,90.33 274.99,90.33 
	274.99,90.33 274.99,90.33 274.99,90.33 274.99,90.33 274.99,90.33 274.99,90.33 274.99,90.33 274.99,90.33 274.99,90.33 
	274.99,90.33 274.99,90.33 274.99,90.33 274.99,90.33 274.99,90.33 274.99,90.33 274.99,90.33 274.99,90.33 274.99,90.33 
	274.99,90.33 274.99,90.33 274.99,90.33 274.99,90.33 274.99,90.33 274.99,90.33 274.99,90.33 274.99,90.33 274.99,90.33 
	274.99,90.33 274.99,90.33 274.99,90.33 274.99,90.33 274.99,90.33 274.99,90.33 274.99,90.33 274.99,90.33 274.99,90.33 
	274.99,90.33 274.99,90.33 274.99,90.33 274.99,90.33 274.99,90.33 274.99,90.33 274.99,90.33 274.99,90.33 274.99,90.33 
	274.99,90.33 274.99,90.33 274.99,90.33 274.99,90.33 274.99,90.33 274.99,90.33 "/>
<g>
	<defs>
		<rect id="SVGID_1_" x="262.56" y="54.36" width="17" height="16"/>
	</defs>
	<clipPath id="SVGID_00000097501223806318610930000013264104449384531384_">
		<use xlink:href="#SVGID_1_"  style="overflow:visible;"/>
	</clipPath>
	
		<path style="opacity:0;clip-path:url(#SVGID_00000097501223806318610930000013264104449384531384_);fill:none;stroke:#000000;stroke-width:1.000000e-06;stroke-miterlimit:10;" d="
		M271.06,62.36L271.06,62.36z"/>
	<path style="clip-path:url(#SVGID_00000097501223806318610930000013264104449384531384_);" d="M267.96,65.04
		c-0.09,0.32-0.09,0.36-0.36,0.66c-0.79,0.98-1.52,1.27-2.02,1.27c-0.9,0-1.15-0.98-1.15-1.68c0-0.89,0.57-3.09,0.98-3.92
		c0.55-1.05,1.36-1.72,2.07-1.72c1.16,0,1.41,1.47,1.41,1.57c0,0.11-0.04,0.21-0.05,0.3L267.96,65.04 M271.68,54.95
		c0-0.02,0-0.2-0.23-0.2c-0.27,0-1.97,0.16-2.27,0.2c-0.14,0.02-0.25,0.11-0.25,0.34c0,0.22,0.16,0.22,0.43,0.22
		c0.86,0,0.89,0.12,0.89,0.3l-0.05,0.36l-1.07,4.24c-0.32-0.66-0.84-1.14-1.64-1.14c-2.09,0-4.31,2.63-4.31,5.24
		c0,1.68,0.98,2.86,2.38,2.86c0.36,0,1.25-0.07,2.32-1.34c0.14,0.75,0.77,1.34,1.63,1.34c0.62,0,1.04-0.41,1.32-0.98
		c0.3-0.64,0.54-1.73,0.54-1.77c0-0.18-0.16-0.18-0.21-0.18c-0.18,0-0.2,0.07-0.25,0.32c-0.3,1.16-0.62,2.22-1.36,2.22
		c-0.48,0-0.54-0.46-0.54-0.82c0-0.43,0.04-0.55,0.11-0.86L271.68,54.95z"/>
	<path style="clip-path:url(#SVGID_00000097501223806318610930000013264104449384531384_);" d="M274.88,68.54
		c-0.12,0.43-0.54,1.1-1.18,1.1c-0.04,0-0.41,0-0.68-0.18c0.51-0.16,0.55-0.61,0.55-0.69c0-0.28-0.21-0.46-0.5-0.46
		c-0.35,0-0.71,0.3-0.71,0.77c0,0.63,0.7,0.91,1.32,0.91c0.58,0,1.09-0.36,1.4-0.89c0.3,0.66,0.99,0.89,1.49,0.89
		c1.44,0,2.2-1.57,2.2-1.92c0-0.16-0.16-0.16-0.2-0.16c-0.18,0-0.19,0.06-0.24,0.21c-0.26,0.87-1.02,1.52-1.72,1.52
		c-0.5,0-0.76-0.34-0.76-0.82c0-0.32,0.3-1.47,0.65-2.86c0.25-0.97,0.81-1.28,1.23-1.28c0.02,0,0.41,0,0.68,0.18
		c-0.4,0.11-0.55,0.46-0.55,0.69c0,0.28,0.21,0.46,0.5,0.46c0.29,0,0.7-0.24,0.7-0.76c0-0.7-0.8-0.92-1.3-0.92
		c-0.63,0-1.13,0.41-1.4,0.89c-0.23-0.51-0.8-0.89-1.5-0.89c-1.4,0-2.21,1.54-2.21,1.92c0,0.16,0.18,0.16,0.21,0.16
		c0.16,0,0.18-0.05,0.24-0.21c0.31-0.98,1.1-1.52,1.72-1.52c0.41,0,0.75,0.22,0.75,0.83c0,0.25-0.15,0.88-0.26,1.3L274.88,68.54"/>
</g>
<polygon class="st3" points="125.58,6.5 125.58,6.5 125.58,6.5 125.58,6.5 125.58,6.5 125.58,6.5 125.58,6.5 125.58,6.5 125.58,6.5 
	125.58,6.5 125.58,6.5 125.58,6.5 125.58,6.5 125.58,6.5 125.58,6.5 125.58,6.5 125.58,6.5 125.58,6.5 125.58,6.5 125.58,6.5 
	125.58,6.5 125.58,6.5 125.58,6.5 125.58,6.5 125.58,6.5 125.58,6.5 125.58,6.5 125.58,6.5 125.58,6.5 125.58,6.5 125.58,6.5 
	125.58,6.5 125.58,6.5 125.58,6.5 125.58,6.5 125.58,6.5 125.58,6.5 125.58,6.5 125.58,6.5 125.58,6.5 125.58,6.5 125.58,6.5 
	125.58,6.5 125.58,6.5 125.58,6.5 125.58,6.5 125.58,6.5 125.58,6.5 125.58,6.5 125.58,6.5 125.58,6.5 125.58,6.5 125.58,6.5 
	125.58,6.5 125.58,6.5 125.58,6.5 125.58,6.5 125.58,6.5 125.58,6.5 125.58,6.5 125.58,6.5 125.58,6.5 125.58,6.5 125.58,6.5 
	125.58,6.5 125.58,6.5 125.58,6.5 125.58,6.5 125.58,6.5 125.58,6.5 125.58,6.5 125.58,6.5 125.58,6.5 125.58,6.5 125.58,6.5 
	125.58,6.5 125.58,6.5 125.58,6.5 125.58,6.5 125.58,6.5 125.58,6.5 125.58,6.5 125.58,6.5 125.58,6.5 125.58,6.5 "/>
<g>
	<defs>
		<rect id="SVGID_00000065763865599478957950000004731537550323054772_" x="48.03" width="16" height="18.8"/>
	</defs>
	<clipPath id="SVGID_00000028284939415297556140000000610018824075093687_">
		<use xlink:href="#SVGID_00000065763865599478957950000004731537550323054772_"  style="overflow:visible;"/>
	</clipPath>
	<path style="clip-path:url(#SVGID_00000028284939415297556140000000610018824075093687_);" d="M52.84,10.67
		c-0.09,0.32-0.09,0.36-0.36,0.66c-0.79,0.98-1.52,1.27-2.02,1.27c-0.9,0-1.15-0.98-1.15-1.68c0-0.89,0.57-3.09,0.98-3.92
		c0.55-1.05,1.36-1.72,2.07-1.72c1.16,0,1.41,1.47,1.41,1.57c0,0.11-0.04,0.21-0.05,0.3L52.84,10.67 M56.56,0.59
		c0-0.02,0-0.2-0.23-0.2c-0.27,0-1.97,0.16-2.27,0.2C53.91,0.6,53.8,0.7,53.8,0.93c0,0.22,0.16,0.22,0.43,0.22
		c0.86,0,0.89,0.12,0.89,0.3L55.07,1.8L54,6.04c-0.32-0.66-0.84-1.14-1.64-1.14c-2.09,0-4.31,2.63-4.31,5.24
		c0,1.68,0.98,2.86,2.38,2.86c0.36,0,1.25-0.07,2.32-1.34c0.14,0.75,0.77,1.34,1.63,1.34c0.62,0,1.04-0.41,1.32-0.98
		c0.3-0.64,0.54-1.73,0.54-1.77c0-0.18-0.16-0.18-0.21-0.18c-0.18,0-0.2,0.07-0.25,0.32c-0.3,1.16-0.62,2.22-1.36,2.22
		c-0.48,0-0.54-0.46-0.54-0.82c0-0.43,0.04-0.55,0.11-0.86L56.56,0.59z"/>
	<path style="clip-path:url(#SVGID_00000028284939415297556140000000610018824075093687_);" d="M63.6,10.77
		c0.05-0.18,0.05-0.2,0.05-0.27c0-0.25-0.2-0.4-0.41-0.4c-0.14,0-0.38,0.06-0.51,0.3c-0.04,0.07-0.14,0.48-0.2,0.73l-0.26,1.04
		c-0.08,0.3-0.46,1.88-0.5,2.02c-0.01,0-0.56,1.09-1.54,1.09c-0.85,0-0.85-0.82-0.85-1.04c0-0.68,0.29-1.47,0.67-2.43
		c0.15-0.4,0.21-0.55,0.21-0.76c0-0.6-0.51-1.07-1.19-1.07c-1.27,0-1.83,1.7-1.83,1.92c0,0.16,0.18,0.16,0.21,0.16
		c0.18,0,0.19-0.06,0.23-0.2c0.31-1.04,0.85-1.53,1.35-1.53c0.21,0,0.31,0.14,0.31,0.44c0,0.29-0.11,0.56-0.17,0.73
		c-0.6,1.53-0.73,1.99-0.73,2.55c0,0.21,0,0.8,0.49,1.2c0.39,0.32,0.91,0.39,1.25,0.39c0.5,0,0.95-0.19,1.37-0.56
		c-0.16,0.69-0.3,1.22-0.83,1.84c-0.34,0.39-0.84,0.8-1.5,0.8c-0.09,0-0.68,0-0.94-0.41c0.68-0.07,0.68-0.68,0.68-0.69
		c0-0.4-0.36-0.48-0.49-0.48c-0.31,0-0.73,0.25-0.73,0.83c0,0.64,0.6,1.1,1.49,1.1c1.27,0,2.81-0.98,3.2-2.54L63.6,10.77"/>
</g>
<polygon class="st3" points="121,22.66 121,22.66 121,22.66 121,22.66 121,22.66 121,22.66 121,22.66 121,22.66 121,22.66 
	121,22.66 121,22.66 121,22.66 121,22.66 121,22.66 121,22.66 121,22.66 121,22.66 121,22.66 121,22.66 121,22.66 121,22.66 
	121,22.66 121,22.66 121,22.66 121,22.66 121,22.66 121,22.66 121,22.66 121,22.66 121,22.66 121,22.66 121,22.66 121,22.66 
	121,22.66 121,22.66 121,22.66 121,22.66 121,22.66 121,22.66 121,22.66 121,22.66 121,22.66 121,22.66 121,22.66 121,22.66 
	121,22.66 121,22.66 121,22.66 121,22.66 121,22.66 121,22.66 121,22.66 121,22.66 121,22.66 121,22.66 121,22.66 121,22.66 
	121,22.66 121,22.66 121,22.66 121,22.66 121,22.66 121,22.66 121,22.66 121,22.66 121,22.66 121,22.66 121,22.66 121,22.66 
	121,22.66 121,22.66 121,22.66 121,22.66 121,22.66 121,22.66 121,22.66 121,22.66 121,22.66 121,22.66 121,22.66 121,22.66 
	121,22.66 121,22.66 121,22.66 121,22.66 121,22.66 121,22.66 121,22.66 121,22.66 "/>
<g>
	<defs>
		<rect id="SVGID_00000156557597473684866200000005629050277676867241_" x="84.98" y="19.9" width="52" height="15"/>
	</defs>
	<clipPath id="SVGID_00000085245999043134826030000017251046308872144810_">
		<use xlink:href="#SVGID_00000156557597473684866200000005629050277676867241_"  style="overflow:visible;"/>
	</clipPath>
	
		<path style="opacity:0;clip-path:url(#SVGID_00000085245999043134826030000017251046308872144810_);fill:none;stroke:#000000;stroke-width:1.000000e-06;stroke-miterlimit:10;" d="
		M110.98,27.4L110.98,27.4z"/>
	<path style="clip-path:url(#SVGID_00000085245999043134826030000017251046308872144810_);fill:#E51E26;" d="M88.47,24.75h1.68
		c0.36,0,0.54,0,0.54-0.36c0-0.2-0.18-0.2-0.5-0.2h-1.57c0.64-2.54,0.73-2.9,0.73-3c0-0.3-0.21-0.48-0.52-0.48
		c-0.05,0-0.55,0.02-0.71,0.64l-0.7,2.84h-1.68c-0.36,0-0.54,0-0.54,0.34c0,0.22,0.14,0.22,0.5,0.22h1.57
		c-1.29,5.08-1.36,5.38-1.36,5.7c0,0.97,0.68,1.65,1.65,1.65c1.82,0,2.84-2.61,2.84-2.75c0-0.18-0.14-0.18-0.21-0.18
		c-0.16,0-0.18,0.05-0.27,0.25c-0.77,1.86-1.72,2.29-2.32,2.29c-0.38,0-0.55-0.23-0.55-0.82c0-0.43,0.04-0.55,0.11-0.86L88.47,24.75
		"/>
	<path style="clip-path:url(#SVGID_00000085245999043134826030000017251046308872144810_);fill:#E51E26;" d="M95.48,26.63
		c0-0.34-0.02-0.35-0.38-0.35c-0.8,0.79-1.94,0.8-2.46,0.8v0.45c0.3,0,1.13,0,1.82-0.35v6.39c0,0.41,0,0.58-1.25,0.58h-0.48v0.45
		c0.23-0.01,1.77-0.05,2.23-0.05c0.39,0,1.97,0.04,2.24,0.05v-0.45h-0.48c-1.25,0-1.25-0.16-1.25-0.58V26.63"/>
	<path style="clip-path:url(#SVGID_00000085245999043134826030000017251046308872144810_);fill:#E51E26;" d="M116.35,22.99
		c0.22-0.11,0.34-0.2,0.34-0.39c0-0.2-0.16-0.36-0.36-0.36c-0.05,0-0.09,0-0.32,0.13l-9.91,4.67c-0.2,0.09-0.34,0.18-0.34,0.39
		c0,0.21,0.14,0.3,0.34,0.39l9.91,4.67c0.23,0.12,0.27,0.12,0.32,0.12c0.2,0,0.36-0.16,0.36-0.36c0-0.2-0.12-0.29-0.34-0.39
		l-9.39-4.43L116.35,22.99"/>
	<path style="clip-path:url(#SVGID_00000085245999043134826030000017251046308872144810_);fill:#E51E26;" d="M126.87,24.75h1.68
		c0.36,0,0.54,0,0.54-0.36c0-0.2-0.18-0.2-0.5-0.2h-1.57c0.64-2.54,0.73-2.9,0.73-3c0-0.3-0.21-0.48-0.52-0.48
		c-0.05,0-0.55,0.02-0.71,0.64l-0.7,2.84h-1.68c-0.36,0-0.54,0-0.54,0.34c0,0.22,0.14,0.22,0.5,0.22h1.57
		c-1.29,5.08-1.36,5.38-1.36,5.7c0,0.97,0.68,1.65,1.65,1.65c1.82,0,2.84-2.61,2.84-2.75c0-0.18-0.14-0.18-0.21-0.18
		c-0.16,0-0.18,0.05-0.27,0.25c-0.77,1.86-1.72,2.29-2.32,2.29c-0.38,0-0.55-0.23-0.55-0.82c0-0.43,0.04-0.55,0.11-0.86
		L126.87,24.75"/>
	<path style="clip-path:url(#SVGID_00000085245999043134826030000017251046308872144810_);fill:#E51E26;" d="M136.01,32.32h-0.43
		c-0.04,0.28-0.16,1.02-0.33,1.14c-0.1,0.08-1.07,0.08-1.24,0.08h-2.31c1.32-1.17,1.75-1.52,2.51-2.1c0.93-0.74,1.79-1.52,1.79-2.71
		c0-1.52-1.33-2.44-2.93-2.44c-1.55,0-2.61,1.09-2.61,2.24c0,0.64,0.54,0.7,0.66,0.7c0.3,0,0.66-0.21,0.66-0.66
		c0-0.23-0.09-0.66-0.74-0.66c0.39-0.89,1.24-1.17,1.83-1.17c1.25,0,1.9,0.98,1.9,1.99c0,1.09-0.78,1.96-1.18,2.41l-3.02,2.98
		c-0.12,0.11-0.12,0.14-0.12,0.49h5.16L136.01,32.32"/>
</g>
<polygon class="st3" points="213,19.9 213,19.9 213,19.9 213,19.9 213,19.9 213,19.9 213,19.9 213,19.9 213,19.9 213,19.9 213,19.9 
	213,19.9 213,19.9 213,19.9 213,19.9 213,19.9 213,19.9 213,19.9 213,19.9 213,19.9 213,19.9 213,19.9 213,19.9 213,19.9 213,19.9 
	213,19.9 213,19.9 213,19.9 213,19.9 213,19.9 213,19.9 213,19.9 213,19.9 213,19.9 213,19.9 213,19.9 213,19.9 213,19.9 213,19.9 
	213,19.9 213,19.9 213,19.9 213,19.9 213,19.9 213,19.9 213,19.9 213,19.9 213,19.9 213,19.9 213,19.9 213,19.9 213,19.9 213,19.9 
	213,19.9 213,19.9 213,19.9 213,19.9 213,19.9 213,19.9 213,19.9 213,19.9 213,19.9 213,19.9 213,19.9 213,19.9 213,19.9 213,19.9 
	213,19.9 213,19.9 213,19.9 213,19.9 213,19.9 213,19.9 213,19.9 213,19.9 213,19.9 213,19.9 213,19.9 213,19.9 213,19.9 213,19.9 
	213,19.9 213,19.9 213,19.9 213,19.9 213,19.9 213,19.9 213,19.9 213,19.9 213,19.9 "/>
<g>
	<defs>
		<rect id="SVGID_00000168100095952883401330000007699141025614570686_" x="187.2" y="19.9" width="52" height="15"/>
	</defs>
	<clipPath id="SVGID_00000057137639320069350780000013936603606163992242_">
		<use xlink:href="#SVGID_00000168100095952883401330000007699141025614570686_"  style="overflow:visible;"/>
	</clipPath>
	
		<path style="opacity:0;clip-path:url(#SVGID_00000057137639320069350780000013936603606163992242_);fill:none;stroke:#000000;stroke-width:1.000000e-06;stroke-miterlimit:10;" d="
		M213.2,27.4L213.2,27.4z"/>
	<path style="clip-path:url(#SVGID_00000057137639320069350780000013936603606163992242_);fill:#828386;" d="M190.68,24.75h1.68
		c0.36,0,0.54,0,0.54-0.36c0-0.2-0.18-0.2-0.5-0.2h-1.57c0.64-2.54,0.73-2.9,0.73-3c0-0.3-0.21-0.48-0.52-0.48
		c-0.05,0-0.55,0.02-0.71,0.64l-0.7,2.84h-1.68c-0.36,0-0.54,0-0.54,0.34c0,0.22,0.14,0.22,0.5,0.22h1.57
		c-1.29,5.08-1.36,5.38-1.36,5.7c0,0.97,0.68,1.65,1.65,1.65c1.82,0,2.84-2.61,2.84-2.75c0-0.18-0.14-0.18-0.21-0.18
		c-0.16,0-0.18,0.05-0.27,0.25c-0.77,1.86-1.72,2.29-2.32,2.29c-0.38,0-0.55-0.23-0.55-0.82c0-0.43,0.04-0.55,0.11-0.86
		L190.68,24.75"/>
	<path style="clip-path:url(#SVGID_00000057137639320069350780000013936603606163992242_);fill:#828386;" d="M197.7,26.63
		c0-0.34-0.02-0.35-0.38-0.35c-0.8,0.79-1.94,0.8-2.46,0.8v0.45c0.3,0,1.13,0,1.82-0.35v6.39c0,0.41,0,0.58-1.25,0.58h-0.48v0.45
		c0.23-0.01,1.77-0.05,2.23-0.05c0.39,0,1.97,0.04,2.24,0.05v-0.45h-0.48c-1.25,0-1.25-0.16-1.25-0.58V26.63"/>
	<path style="clip-path:url(#SVGID_00000057137639320069350780000013936603606163992242_);fill:#828386;" d="M218.57,27.82
		c0.2-0.09,0.34-0.18,0.34-0.39c0-0.21-0.14-0.3-0.34-0.39l-9.9-4.67c-0.23-0.13-0.27-0.13-0.32-0.13c-0.2,0-0.36,0.16-0.36,0.36
		c0,0.16,0.09,0.27,0.34,0.39l9.39,4.43l-9.39,4.43c-0.25,0.12-0.34,0.23-0.34,0.39c0,0.2,0.16,0.36,0.36,0.36
		c0.05,0,0.09,0,0.32-0.12L218.57,27.82"/>
	<path style="clip-path:url(#SVGID_00000057137639320069350780000013936603606163992242_);fill:#828386;" d="M229.08,24.75h1.68
		c0.36,0,0.54,0,0.54-0.36c0-0.2-0.18-0.2-0.5-0.2h-1.57c0.64-2.54,0.73-2.9,0.73-3c0-0.3-0.21-0.48-0.52-0.48
		c-0.05,0-0.55,0.02-0.71,0.64l-0.7,2.84h-1.68c-0.36,0-0.54,0-0.54,0.34c0,0.22,0.14,0.22,0.5,0.22h1.57
		c-1.29,5.08-1.36,5.38-1.36,5.7c0,0.97,0.68,1.65,1.65,1.65c1.82,0,2.84-2.61,2.84-2.75c0-0.18-0.14-0.18-0.21-0.18
		c-0.16,0-0.18,0.05-0.27,0.25c-0.77,1.86-1.72,2.29-2.32,2.29c-0.38,0-0.55-0.23-0.55-0.82c0-0.43,0.04-0.55,0.11-0.86
		L229.08,24.75"/>
	<path style="clip-path:url(#SVGID_00000057137639320069350780000013936603606163992242_);fill:#828386;" d="M238.23,32.32h-0.43
		c-0.04,0.28-0.16,1.02-0.33,1.14c-0.1,0.08-1.07,0.08-1.24,0.08h-2.31c1.32-1.17,1.75-1.52,2.51-2.1c0.93-0.74,1.79-1.52,1.79-2.71
		c0-1.52-1.33-2.44-2.93-2.44c-1.55,0-2.61,1.09-2.61,2.24c0,0.64,0.54,0.7,0.66,0.7c0.3,0,0.66-0.21,0.66-0.66
		c0-0.23-0.09-0.66-0.74-0.66c0.39-0.89,1.24-1.17,1.83-1.17c1.25,0,1.9,0.98,1.9,1.99c0,1.09-0.78,1.96-1.18,2.41l-3.02,2.98
		c-0.12,0.11-0.12,0.14-0.12,0.49h5.16L238.23,32.32"/>
</g>
<line class="st2" x1="72" y1="78.17" x2="97.22" y2="39.02"/>
<line class="st0" x1="72" y1="78.17" x2="219.31" y2="52.09"/>
<polygon class="st3" points="275.8,134.85 275.8,134.85 275.8,134.85 275.8,134.85 275.8,134.85 275.8,134.85 275.8,134.85 
	275.8,134.85 275.8,134.85 275.8,134.85 275.8,134.85 275.8,134.85 275.8,134.85 275.8,134.85 275.8,134.85 275.8,134.85 
	275.8,134.85 275.8,134.85 275.8,134.85 275.8,134.85 275.8,134.85 275.8,134.85 275.8,134.85 275.8,134.85 275.8,134.85 
	275.8,134.85 275.8,134.85 275.8,134.85 275.8,134.85 275.8,134.85 275.8,134.85 275.8,134.85 275.8,134.85 275.8,134.85 
	275.8,134.85 275.8,134.85 275.8,134.85 275.8,134.85 275.8,134.85 275.8,134.85 275.8,134.85 275.8,134.85 275.8,134.85 
	275.8,134.85 275.8,134.85 275.8,134.85 275.8,134.85 275.8,134.85 275.8,134.85 275.8,134.85 275.8,134.85 275.8,134.85 
	275.8,134.85 275.8,134.85 275.8,134.85 275.8,134.85 275.8,134.85 275.8,134.85 275.8,134.85 275.8,134.85 275.8,134.85 
	275.8,134.85 275.8,134.85 275.8,134.85 275.8,134.85 275.8,134.85 275.8,134.85 275.8,134.85 275.8,134.85 275.8,134.85 
	275.8,134.85 275.8,134.85 275.8,134.85 275.8,134.85 275.8,134.85 275.8,134.85 275.8,134.85 275.8,134.85 275.8,134.85 
	275.8,134.85 275.8,134.85 275.8,134.85 275.8,134.85 275.8,134.85 275.8,134.85 275.8,134.85 275.8,134.85 275.8,134.85 
	275.8,134.85 "/>
<g>
	<defs>
		<rect id="SVGID_00000090991645120545778000000011139828995392370836_" x="183.19" y="58.86" width="18" height="17"/>
	</defs>
	<clipPath id="SVGID_00000023261770196284849720000012224972792789984648_">
		<use xlink:href="#SVGID_00000090991645120545778000000011139828995392370836_"  style="overflow:visible;"/>
	</clipPath>
	
		<path style="opacity:0;clip-path:url(#SVGID_00000023261770196284849720000012224972792789984648_);fill:none;stroke:#000000;stroke-width:1.000000e-06;stroke-miterlimit:10;" d="
		M192.19,67.36L192.19,67.36z"/>
	<path style="clip-path:url(#SVGID_00000023261770196284849720000012224972792789984648_);fill:#828386;" d="M189.19,64.13
		c1.36,0.07,2.38,0.89,2.38,2.47c0,2.11-1.54,4.67-4.22,4.88L189.19,64.13 M186.89,71.48c-1.07-0.05-2.36-0.68-2.36-2.47
		c0-2.15,1.54-4.65,4.2-4.88L186.89,71.48z M190.3,59.68c0-0.04,0.05-0.23,0.05-0.25c0-0.02,0-0.18-0.21-0.18
		c-0.18,0-0.2,0.05-0.27,0.36l-1.04,4.13c-2.84,0.09-5.47,2.47-5.47,4.9c0,1.7,1.25,3.11,3.43,3.24c-0.14,0.55-0.27,1.13-0.41,1.68
		c-0.22,0.84-0.39,1.52-0.39,1.57c0,0.18,0.12,0.2,0.21,0.2c0.09,0,0.12-0.02,0.18-0.07c0.04-0.04,0.14-0.46,0.2-0.72l0.68-2.66
		c2.88-0.09,5.47-2.5,5.47-4.9c0-1.41-0.95-3.06-3.43-3.24L190.3,59.68z"/>
	<path style="clip-path:url(#SVGID_00000023261770196284849720000012224972792789984648_);fill:#828386;" d="M197.11,66.04
		c0.01-0.03,0.05-0.19,0.05-0.2c0-0.06-0.05-0.18-0.2-0.18c-0.25,0-1.29,0.1-1.6,0.12c-0.1,0.01-0.28,0.03-0.28,0.29
		c0,0.18,0.18,0.18,0.33,0.18c0.6,0,0.6,0.09,0.6,0.19c0,0.09-0.02,0.16-0.05,0.28l-1.77,7.09c-0.06,0.22-0.06,0.25-0.06,0.28
		c0,0.19,0.15,0.4,0.43,0.4c0.34,0,0.5-0.25,0.58-0.53c0.02-0.05,0.56-2.25,0.61-2.43c0.89,0.09,1.6,0.38,1.6,1.03
		c0,0.06,0,0.12-0.03,0.25c-0.05,0.19-0.05,0.25-0.05,0.39c0,0.89,0.73,1.29,1.33,1.29c1.22,0,1.59-1.9,1.59-1.92
		c0-0.16-0.16-0.16-0.2-0.16c-0.18,0-0.19,0.06-0.25,0.3c-0.15,0.54-0.49,1.43-1.1,1.43c-0.34,0-0.44-0.31-0.44-0.65
		c0-0.21,0-0.24,0.07-0.56c0.01-0.04,0.06-0.25,0.06-0.39c0-1.12-1.5-1.29-2.03-1.33c0.36-0.22,0.83-0.64,1.04-0.83
		c0.64-0.6,1.27-1.19,1.97-1.19c0.15,0,0.31,0.04,0.41,0.16c-0.54,0.09-0.65,0.51-0.65,0.7c0,0.28,0.21,0.46,0.5,0.46
		c0.34,0,0.72-0.28,0.72-0.8c0-0.41-0.3-0.88-0.97-0.88c-0.71,0-1.37,0.51-2,1.1c-0.53,0.5-0.94,0.89-1.45,1.1L197.11,66.04"/>
</g>
<polygon class="st3" points="101.04,58.33 101.04,58.33 101.04,58.33 101.04,58.33 101.04,58.33 101.04,58.33 101.04,58.33 
	101.04,58.33 101.04,58.33 101.04,58.33 101.04,58.33 101.04,58.33 101.04,58.33 101.04,58.33 101.04,58.33 101.04,58.33 
	101.04,58.33 101.04,58.33 101.04,58.33 101.04,58.33 101.04,58.33 101.04,58.33 101.04,58.33 101.04,58.33 101.04,58.33 
	101.04,58.33 101.04,58.33 101.04,58.33 101.04,58.33 101.04,58.33 101.04,58.33 101.04,58.33 101.04,58.33 101.04,58.33 
	101.04,58.33 101.04,58.33 101.04,58.33 101.04,58.33 101.04,58.33 101.04,58.33 101.04,58.33 101.04,58.33 101.04,58.33 
	101.04,58.33 101.04,58.33 101.04,58.33 101.04,58.33 101.04,58.33 101.04,58.33 101.04,58.33 101.04,58.33 101.04,58.33 
	101.04,58.33 101.04,58.33 101.04,58.33 101.04,58.33 101.04,58.33 101.04,58.33 101.04,58.33 101.04,58.33 101.04,58.33 
	101.04,58.33 101.04,58.33 101.04,58.33 101.04,58.33 101.04,58.33 101.04,58.33 101.04,58.33 101.04,58.33 101.04,58.33 
	101.04,58.33 101.04,58.33 101.04,58.33 101.04,58.33 101.04,58.33 101.04,58.33 101.04,58.33 101.04,58.33 101.04,58.33 
	101.04,58.33 101.04,58.33 101.04,58.33 101.04,58.33 101.04,58.33 101.04,58.33 101.04,58.33 101.04,58.33 101.04,58.33 "/>
<g>
	<defs>
		<rect id="SVGID_00000128458619710874332760000010773549052707892371_" x="92.04" y="53.52" width="18" height="17"/>
	</defs>
	<clipPath id="SVGID_00000137098109553173894690000009733899796754853042_">
		<use xlink:href="#SVGID_00000128458619710874332760000010773549052707892371_"  style="overflow:visible;"/>
	</clipPath>
	
		<path style="opacity:0;clip-path:url(#SVGID_00000137098109553173894690000009733899796754853042_);fill:none;stroke:#000000;stroke-width:1.000000e-06;stroke-miterlimit:10;" d="
		M101.04,62.02L101.04,62.02z"/>
	<path style="clip-path:url(#SVGID_00000137098109553173894690000009733899796754853042_);fill:#E51E26;" d="M98.04,58.8
		c1.36,0.07,2.38,0.89,2.38,2.47c0,2.11-1.54,4.67-4.22,4.88L98.04,58.8 M95.73,66.15c-1.07-0.05-2.36-0.68-2.36-2.47
		c0-2.15,1.54-4.65,4.2-4.88L95.73,66.15z M99.15,54.35c0-0.04,0.05-0.23,0.05-0.25c0-0.02,0-0.18-0.21-0.18
		c-0.18,0-0.2,0.05-0.27,0.36l-1.04,4.13c-2.84,0.09-5.47,2.47-5.47,4.9c0,1.7,1.25,3.11,3.43,3.24c-0.14,0.55-0.27,1.13-0.41,1.68
		c-0.22,0.84-0.39,1.52-0.39,1.57c0,0.18,0.12,0.2,0.21,0.2c0.09,0,0.12-0.02,0.18-0.07c0.04-0.04,0.14-0.46,0.2-0.72l0.68-2.66
		c2.88-0.09,5.47-2.5,5.47-4.9c0-1.41-0.95-3.06-3.43-3.24L99.15,54.35z"/>
	<path style="clip-path:url(#SVGID_00000137098109553173894690000009733899796754853042_);fill:#E51E26;" d="M105.96,60.7
		c0.01-0.03,0.05-0.19,0.05-0.2c0-0.06-0.05-0.17-0.2-0.17c-0.25,0-1.29,0.1-1.6,0.12c-0.1,0.01-0.28,0.03-0.28,0.29
		c0,0.18,0.18,0.18,0.33,0.18c0.6,0,0.6,0.09,0.6,0.19c0,0.09-0.02,0.16-0.05,0.28l-1.77,7.09c-0.06,0.22-0.06,0.25-0.06,0.28
		c0,0.19,0.15,0.4,0.43,0.4c0.34,0,0.5-0.25,0.58-0.53c0.03-0.05,0.56-2.25,0.61-2.43c0.89,0.09,1.6,0.38,1.6,1.03
		c0,0.06,0,0.12-0.02,0.25c-0.05,0.19-0.05,0.25-0.05,0.39c0,0.89,0.73,1.29,1.33,1.29c1.22,0,1.59-1.9,1.59-1.92
		c0-0.16-0.16-0.16-0.2-0.16c-0.18,0-0.19,0.06-0.25,0.3c-0.15,0.54-0.49,1.43-1.1,1.43c-0.34,0-0.44-0.31-0.44-0.65
		c0-0.21,0-0.24,0.08-0.56c0.01-0.04,0.06-0.25,0.06-0.39c0-1.12-1.5-1.29-2.03-1.33c0.36-0.22,0.83-0.64,1.04-0.83
		c0.64-0.6,1.27-1.19,1.97-1.19c0.15,0,0.31,0.04,0.41,0.16c-0.54,0.09-0.65,0.51-0.65,0.7c0,0.28,0.21,0.46,0.5,0.46
		c0.34,0,0.72-0.28,0.72-0.8c0-0.41-0.3-0.88-0.97-0.88c-0.71,0-1.37,0.51-2,1.1c-0.53,0.5-0.94,0.89-1.45,1.1L105.96,60.7"/>
</g>
<path class="st2" d="M91.2,78.17c0-6.77-3.51-12.72-8.8-16.14"/>
</svg>
